# xmcd CD database file
#
# Track frame offsets:
#	150
#	18617
#	40717
#	63230
#	81455
#	104665
#	126680
#	148960
#	172975
#	195720
#	214600
#
# Disc length: 3300 seconds
#
# Revision: 0
# Processed by: cddbd v1.4PL0 Copyright (c) Steve Scherf et al.
# Submitted via: NeoAudio 9.9.9
#
DISCID=a80ce20b
DTITLE=William Souvenir - Na'f Mi' Wong
DYEAR=1996
DGENRE=Salsa
TTITLE0=Tombo edè
TTITLE1=Mati Hollanti déya
TTITLE2=Koni samma koni
TTITLE3=Aluma luna
TTITLE4=Pu'yana 'm kamisa
TTITLE5=Gyënnie
TTITLE6=Amy saby-ing bung
TTITLE7=Ding Musa-mang
TTITLE8=Djamanti bromtjie
TTITLE9=Kikie
TTITLE10=Na 'f mi 'wang
EXTD=YEAR: 1996
EXTT0=
EXTT1=
EXTT2=
EXTT3=
EXTT4=
EXTT5=
EXTT6=
EXTT7=
EXTT8=
EXTT9=
EXTT10=
PLAYORDER=
